# xmcd CD database file
#
# Track frame offsets:
#	150
#	26841
#	50781
#	70932
#	92329
#	107484
#	127668
#	156053
#	173528
#	192693
#	214668
#	239858
#
# Disc length: 3413 seconds
#
# Revision: 0
# Processed by: cddbd v1.5.2PL0 Copyright (c) Steve Scherf et al.
# Submitted via: CDex 1.40Release
#
DISCID=a30d530c
DTITLE=Keith Urban - Love, Pain and the whole crazy Thing
DYEAR=2006
DGENRE=Country
TTITLE0=Once In A Lifetime
TTITLE1=Shine
TTITLE2=I Told You So
TTITLE3=I Can't Stop Loving You
TTITLE4=Won't Let You Down
TTITLE5=Faster Car
TTITLE6=Stupid Boy
TTITLE7=Used To The Pain
TTITLE8=Tu Compania
TTITLE9=God Made Woman
TTITLE10=Everybody
TTITLE11=Got It Right This Time
EXTD=YEAR: 2006 ID3G: 2
EXTT0=
EXTT1=
EXTT2=
EXTT3=
EXTT4=
EXTT5=
EXTT6=
EXTT7=
EXTT8=
EXTT9=
EXTT10=
EXTT11=
PLAYORDER=
